<svg width="22" height="23" viewBox="0 0 22 23" fill="none" xmlns="http://www.w3.org/2000/svg">
<path d="M17.5588 19.0488L18.051 19.6148L17.5588 19.0488ZM1.75 11.5C1.75 6.39137 5.89137 2.25 11 2.25V0.75C5.06294 0.75 0.25 5.56294 0.25 11.5H1.75ZM11 2.25C16.1086 2.25 20.25 6.39137 20.25 11.5H21.75C21.75 5.56294 16.9371 0.75 11 0.75V2.25ZM11 15.25C13.6806 15.25 15.9689 16.9379 16.8563 19.3115L18.2613 18.7862C17.1619 15.8456 14.3266 13.75 11 13.75V15.25ZM20.25 11.5C20.25 14.2872 19.0182 16.7859 17.0667 18.4829L18.051 19.6148C20.3161 17.645 21.75 14.7395 21.75 11.5H20.25ZM17.0667 18.4829C15.4422 19.8955 13.3218 20.75 11 20.75V22.25C13.6971 22.25 16.1639 21.2557 18.051 19.6148L17.0667 18.4829ZM5.14367 19.3115C6.0311 16.9379 8.31937 15.25 11 15.25V13.75C7.67338 13.75 4.8381 15.8456 3.73866 18.7862L5.14367 19.3115ZM11 20.75C8.67818 20.75 6.55781 19.8955 4.93331 18.4829L3.94902 19.6148C5.83607 21.2557 8.30286 22.25 11 22.25V20.75ZM4.93331 18.4829C2.98182 16.7859 1.75 14.2872 1.75 11.5H0.25C0.25 14.7395 1.68387 17.645 3.94902 19.6148L4.93331 18.4829Z" fill="#1D63FF"/>
<circle r="3" transform="matrix(1 0 0 -1 11 8.5)" stroke="#1D63FF" stroke-width="1.5" stroke-linejoin="round"/>
</svg>
