<svg width="27" height="27" viewBox="0 0 27 27" fill="none" xmlns="http://www.w3.org/2000/svg">
<path opacity="0.6" fill-rule="evenodd" clip-rule="evenodd" d="M16.0556 22.4444H22.4444C23.8564 22.4444 25 21.3008 25 19.8889V4.55556C25 3.14361 23.8564 2 22.4444 2H4.55556C3.14361 2 2 3.14361 2 4.55556V19.8889C2 21.3008 3.14361 22.4444 4.55556 22.4444H10.9444L13.5 25L16.0556 22.4444Z" stroke="#1D63FF" stroke-width="2.5" stroke-linecap="round" stroke-linejoin="round"/>
<path d="M13.7261 12.3155C13.8514 12.4407 13.8514 12.6426 13.7261 12.7678C13.6009 12.8931 13.399 12.8931 13.2738 12.7678C13.1486 12.6426 13.1486 12.4407 13.2738 12.3155C13.399 12.1916 13.6009 12.1916 13.7261 12.3155" stroke="#1D63FF" stroke-width="2.5" stroke-linecap="round" stroke-linejoin="round"/>
<path d="M18.8373 12.3155C18.9626 12.4407 18.9626 12.6426 18.8373 12.7678C18.7121 12.8931 18.5102 12.8931 18.385 12.7678C18.2598 12.6426 18.2598 12.4407 18.385 12.3155C18.5102 12.1916 18.7121 12.1916 18.8373 12.3155" stroke="#1D63FF" stroke-width="2.5" stroke-linecap="round" stroke-linejoin="round"/>
<path d="M8.61506 12.3155C8.74028 12.4407 8.74028 12.6426 8.61506 12.7678C8.48983 12.8931 8.28794 12.8931 8.16272 12.7678C8.0375 12.6426 8.0375 12.4407 8.16272 12.3155C8.28794 12.1916 8.48983 12.1916 8.61506 12.3155" stroke="#1D63FF" stroke-width="2.5" stroke-linecap="round" stroke-linejoin="round"/>
</svg>
