<svg width="20" height="20" viewBox="0 0 20 20" fill="none" xmlns="http://www.w3.org/2000/svg">
<path d="M10 1C14.982 1 19 5.018 19 10C19 14.982 14.982 19 10 19" stroke="#F2F5FC" stroke-width="1.5" stroke-linecap="round" stroke-linejoin="round"/>
<path d="M10 19C5.018 19 1 14.982 1 10C1 5.018 5.018 1 10 1" stroke="#F2F5FC" stroke-width="1.5" stroke-linecap="round" stroke-linejoin="round"/>
<path fill-rule="evenodd" clip-rule="evenodd" d="M8.16799 2.06C5.27799 6.885 5.27799 13.116 8.16799 17.941C9.01399 19.354 10.987 19.354 11.833 17.941C14.723 13.116 14.723 6.885 11.833 2.06C10.986 0.647002 9.01399 0.647002 8.16799 2.06Z" stroke="#F2F5FC" stroke-width="1.5" stroke-linecap="round" stroke-linejoin="round"/>
<path d="M2.01001 5.858C6.90201 7.369 13.098 7.369 17.989 5.858" stroke="#F2F5FC" stroke-width="1.5" stroke-linecap="round" stroke-linejoin="round"/>
<path d="M17.99 14.142C13.098 12.631 6.90199 12.631 2.01099 14.142" stroke="#F2F5FC" stroke-width="1.5" stroke-linecap="round" stroke-linejoin="round"/>
</svg>
