<svg width="16" height="22" viewBox="0 0 16 22" fill="none" xmlns="http://www.w3.org/2000/svg">
<path fill-rule="evenodd" clip-rule="evenodd" d="M12.1111 21H3.22222C1.99444 21 1 20.0056 1 18.7778V3.22222C1 1.99444 1.99444 1 3.22222 1H12.1111C13.3389 1 14.3333 1.99444 14.3333 3.22222V18.7778C14.3333 20.0056 13.3389 21 12.1111 21Z" stroke="#1D63FF" stroke-width="2" stroke-linecap="round" stroke-linejoin="round"/>
<path fill-rule="evenodd" clip-rule="evenodd" d="M7.66547 16.8333C7.51213 16.8333 7.38769 16.9578 7.3888 17.1111C7.3888 17.2644 7.51325 17.3889 7.66658 17.3889C7.81991 17.3889 7.94436 17.2644 7.94436 17.1111C7.94436 16.9578 7.81991 16.8333 7.66547 16.8333Z" stroke="#1D63FF" stroke-width="2" stroke-linecap="round" stroke-linejoin="round"/>
<path d="M6.27771 4.33333H9.05549" stroke="#1D63FF" stroke-width="2" stroke-linecap="round" stroke-linejoin="round"/>
</svg>
