<svg width="82" height="82" viewBox="0 0 82 82" fill="none" xmlns="http://www.w3.org/2000/svg">
<path fill-rule="evenodd" clip-rule="evenodd" d="M40.5532 75.1064C59.6364 75.1064 75.1064 59.6364 75.1064 40.5532C75.1064 21.47 59.6364 6 40.5532 6C21.47 6 6 21.47 6 40.5532C6 59.6364 21.47 75.1064 40.5532 75.1064Z" fill="#1D63FF"/>
<path d="M40.5532 78.1064C61.2932 78.1064 78.1064 61.2932 78.1064 40.5532C78.1064 19.8131 61.2932 3 40.5532 3C19.8131 3 3 19.8131 3 40.5532C3 61.2932 19.8131 78.1064 40.5532 78.1064Z" stroke="#4760FF" stroke-opacity="0.3" stroke-width="6"/>
<path fill-rule="evenodd" clip-rule="evenodd" d="M34.6364 49.8975L50.22 40.3623L34.6364 31.6893V49.8975Z" fill="#F2F5FC"/>
<path fill-rule="evenodd" clip-rule="evenodd" d="M33.1489 28.7064L52.4 40.5532L33.1489 52.4V28.7064ZM35.3721 48.4242L48.1674 40.5532L35.3721 32.6812V48.4242Z" fill="#F2F5FC"/>
</svg>
